<svg id="Layer_1" enable-background="new 0 0 512 512" height="512" viewBox="0 0 512 512" width="512" xmlns="http://www.w3.org/2000/svg"><path d="m452 136h-56c-5.522 0-10 4.478-10 10v1.7l-151.843 28.471c-4.729.887-8.157 5.017-8.157 9.829v1.463l-36.36 5.277c-5.46.71-9.34 5.729-8.63 11.199.41 3.15 2.23 5.851 4.99 7.42v87.261l-86-11.15v-62.94l2.96-.39c5.47-.71 9.34-5.729 8.63-11.2-.64-4.97-4.9-8.71-9.9-8.71-.42 0-12.979 1.59-12.979 1.59-2.41.32-4.63 1.49-6.23 3.311-1.6 1.83-2.479 4.17-2.479 6.61v2.452l-31.232 7.807h-38.77c-5.522 0-10 4.478-10 10v40c0 5.522 4.478 10 10 10h38.77l31.23 7.808v2.452c0 2.44.88 4.78 2.479 6.61 1.601 1.819 3.82 2.989 6.23 3.31l137.291 18.357v1.463c0 4.813 3.428 8.942 8.157 9.829l151.843 28.471v1.7c0 5.522 4.478 10 10 10h56c33.084 0 60-26.916 60-60v-120c0-33.084-26.916-60-60-60zm-432 110h20v20h-20zm40 22.192v-24.385l20-5v34.385zm146 32.92v-90.225l20-3.175v96.574zm40 16.589v-123.402l140-26.25v175.902zm160-161.701h36v200h-36zm86 160c0 18.604-12.767 34.283-30 38.734v-197.468c17.233 4.451 30 20.13 30 38.734z"/><path d="m146.29 218.439c.43 0 .859-.029 1.3-.08 2.64-.35 5-1.699 6.63-3.81 1.63-2.12 2.34-4.74 2-7.39-.65-4.971-4.91-8.721-9.91-8.721-.43 0-.859.03-1.29.08-5.47.721-9.34 5.74-8.64 11.21.65 4.972 4.91 8.711 9.91 8.711z"/></svg>